<?xml version="1.0" encoding="UTF-8"?>
<svg id="Layer_1" data-name="Layer 1" xmlns="http://www.w3.org/2000/svg" viewBox="0 0 550.98 404.57">
  <defs>
    <style>
      .cls-1 {
        fill: #04493b;
      }

      .cls-2 {
        fill: #cc9c31;
      }

      .cls-3 {
        fill: #05493c;
      }
    </style>
  </defs>
  <path class="cls-1" d="M396.43,362.28h-241.88v-198.44c0-32.52,12.63-63.06,35.56-86s53.47-35.56,86-35.56c66.34,0,120.32,54.53,120.32,121.56v198.44ZM164.55,352.28h221.88v-188.44c0-61.51-49.49-111.56-110.32-111.56-29.85,0-57.88,11.59-78.92,32.64-21.05,21.04-32.64,49.07-32.64,78.92v188.44Z"/>
  <path class="cls-1" d="M275.49,252.28c-47.42,0-86-38.58-86-86s38.58-86,86-86,86,38.58,86,86-38.58,86-86,86ZM275.49,90.28c-41.91,0-76,34.09-76,76s34.09,76,76,76,76-34.09,76-76-34.09-76-76-76Z"/>
  <g>
    <path class="cls-1" d="M190.61,303.81l28.4-36.46h-21.14l-1.24,1.36v7.75h-4.46v-12.59h34.78v3.47l-28.4,36.46h23.06l1.24-1.36v-7.75h4.46v12.59h-36.71v-3.47Z"/>
    <path class="cls-1" d="M257.45,307.29h-18.23v-3.47h5.64v-36.46h-5.64v-3.47h18.23v3.47h-5.64v36.46h5.64v3.47Z"/>
    <path class="cls-1" d="M304.94,267.36h-5.64v-3.47h15.44v3.47h-5.15l-14.38,39.93h-6.88l-16.12-39.93h-5.39v-3.47h19.1v3.47h-5.95l11.16,28.95,1.8,5.89h.25l1.86-6.01,9.92-28.83Z"/>
    <path class="cls-1" d="M328.75,307.29h-15.19v-3.47h4.84l16.06-39.93h6.57l14.69,39.93h4.65v3.47h-17.73v-3.47h5.52l-4.03-10.91h-16.49l-4.22,10.91h5.33v3.47ZM329.06,289.43h14.01l-5.08-14.32-1.55-6.57h-.25l-1.8,6.7-5.33,14.2Z"/>
  </g>
  <g>
    <path class="cls-1" d="M189.86,334.29v-11.88h1.96v11.88h-1.96ZM190.38,334.29v-1.69h6.8v1.69h-6.8Z"/>
    <path class="cls-1" d="M199.54,334.29l4.14-11.88h2.86l4.14,11.88h-2.12l-3.33-10.28h-.23l-3.33,10.28h-2.12ZM201.61,331.73v-1.44h7.25v1.44h-7.25Z"/>
    <path class="cls-1" d="M213.71,334.29v-11.88h2.59l5.96,9.27h.16l-.13-9.27h1.91v11.88h-2.36l-6.19-9.56h-.16l.13,9.56h-1.91Z"/>
    <path class="cls-1" d="M228.21,334.29v-11.88h1.96v11.88h-1.96ZM229.2,334.29v-1.66h3.49c.77,0,1.4-.17,1.91-.52.5-.35.88-.84,1.12-1.48s.37-1.39.37-2.25c0-.74-.08-1.39-.23-1.93-.16-.55-.39-.99-.71-1.34s-.72-.61-1.21-.78-1.05-.26-1.7-.26h-3.04v-1.66h2.99c1.37,0,2.49.23,3.37.7.88.47,1.52,1.14,1.95,2.01.42.87.63,1.92.63,3.14,0,.84-.1,1.59-.29,2.24-.19.65-.45,1.22-.78,1.69s-.72.87-1.17,1.18c-.45.31-.94.54-1.48.69-.53.15-1.09.22-1.66.22h-3.55Z"/>
    <path class="cls-1" d="M246.01,334.52c-.78,0-1.47-.08-2.08-.24-.61-.16-1.12-.4-1.53-.72s-.73-.71-.94-1.19c-.21-.47-.31-1.02-.3-1.65l1.75-.47c-.02.6.09,1.1.34,1.49.25.4.63.69,1.12.89.5.2,1.07.3,1.72.3s1.17-.08,1.6-.23c.43-.16.76-.37.98-.64.22-.27.33-.58.33-.93,0-.4-.14-.71-.41-.95-.27-.23-.63-.42-1.07-.56-.44-.14-.94-.27-1.49-.39-.56-.12-1.12-.26-1.67-.41-.55-.16-1.05-.36-1.5-.62s-.81-.59-1.08-1c-.27-.41-.41-.92-.41-1.55,0-.72.18-1.34.54-1.85.36-.52.87-.92,1.54-1.21s1.46-.43,2.37-.43,1.71.14,2.4.42c.69.28,1.24.69,1.64,1.22.4.53.61,1.18.62,1.94l-1.8.47c0-.41-.07-.77-.21-1.08-.14-.31-.33-.57-.59-.77-.25-.2-.55-.36-.9-.46-.35-.1-.74-.15-1.19-.15-.52,0-.97.07-1.35.22-.38.15-.68.35-.89.61-.21.26-.32.56-.32.91,0,.43.15.77.46,1.02.31.25.71.44,1.22.59.5.15,1.04.29,1.62.42.52.11,1.03.24,1.54.39s.98.35,1.4.6.77.58,1.03.99.39.93.39,1.57c0,.7-.18,1.3-.55,1.82-.37.52-.91.92-1.63,1.2-.72.28-1.62.42-2.72.42Z"/>
    <path class="cls-1" d="M259.48,334.52c-.88,0-1.66-.13-2.36-.4-.7-.26-1.28-.65-1.76-1.16-.48-.51-.85-1.14-1.1-1.89s-.38-1.61-.38-2.58.13-1.87.39-2.65c.26-.78.63-1.44,1.11-1.99.48-.55,1.06-.96,1.73-1.25.67-.29,1.42-.43,2.25-.43.63,0,1.22.09,1.76.26.54.17,1.01.42,1.4.75.4.32.7.72.93,1.19.22.47.34,1,.35,1.58l-1.85.47c.01-.58-.11-1.05-.35-1.43-.25-.38-.57-.66-.98-.85-.41-.19-.85-.29-1.31-.29-.43,0-.85.08-1.26.25s-.77.44-1.09.8c-.32.37-.57.84-.76,1.41-.19.58-.28,1.27-.28,2.09,0,1.04.15,1.89.46,2.55s.73,1.13,1.28,1.44c.54.31,1.17.46,1.88.46s1.27-.14,1.69-.41c.42-.28.73-.64.93-1.11.2-.46.31-.99.33-1.57l1.75.31c-.01.61-.11,1.19-.29,1.74-.18.55-.46,1.02-.84,1.43-.38.41-.87.73-1.47.95-.6.23-1.32.34-2.16.34Z"/>
    <path class="cls-1" d="M266.28,334.29l4.14-11.88h2.86l4.14,11.88h-2.12l-3.33-10.28h-.23l-3.33,10.28h-2.12ZM268.35,331.73v-1.44h7.25v1.44h-7.25Z"/>
    <path class="cls-1" d="M280.45,334.29v-11.88h1.96v11.88h-1.96ZM281.64,330.74v-1.6h2.86c1.04,0,1.83-.2,2.35-.61s.78-1.08.78-2.02c0-.84-.24-1.47-.73-1.89-.49-.42-1.23-.63-2.24-.63h-3.02v-1.58h3.06c.78,0,1.47.09,2.08.27s1.12.44,1.55.79c.43.35.75.78.97,1.3.22.52.33,1.12.33,1.81,0,.9-.21,1.66-.61,2.28-.41.62-1.01,1.09-1.81,1.4-.8.32-1.79.48-2.96.48h-2.61Z"/>
    <path class="cls-1" d="M292.83,334.29v-11.88h2v11.88h-2Z"/>
    <path class="cls-1" d="M298.85,334.29v-11.88h2.59l5.96,9.27h.16l-.13-9.27h1.91v11.88h-2.36l-6.19-9.56h-.16l.12,9.56h-1.91Z"/>
    <path class="cls-1" d="M317.98,334.52c-.97,0-1.84-.22-2.6-.67s-1.36-1.12-1.8-2.02c-.44-.9-.66-2.03-.66-3.38,0-.98.12-1.86.36-2.63.24-.77.6-1.42,1.08-1.96s1.07-.95,1.75-1.24,1.49-.43,2.4-.43c.68,0,1.3.08,1.85.25.55.17,1.03.41,1.44.72.41.31.73.69.98,1.13.25.44.39.95.42,1.53l-1.87.56c-.04-.6-.19-1.09-.47-1.46-.28-.37-.63-.64-1.05-.81-.43-.17-.88-.25-1.36-.25-.71,0-1.32.16-1.85.47-.52.31-.93.8-1.21,1.47-.29.67-.43,1.53-.43,2.58,0,.82.09,1.51.26,2.08.17.57.41,1.03.72,1.38.31.35.67.61,1.1.77s.88.24,1.38.24c.6,0,1.12-.11,1.55-.32.43-.22.78-.55,1.04-.99.26-.44.43-1.01.49-1.69h-2.55v-1.49h4.5v5.94h-1.49l.23-3.17h-.29c-.17.76-.42,1.39-.75,1.89s-.75.88-1.27,1.13-1.15.38-1.91.38Z"/>
    <path class="cls-1" d="M337.81,334.52c-.88,0-1.66-.13-2.36-.4-.7-.26-1.29-.65-1.76-1.16s-.85-1.14-1.1-1.89-.38-1.61-.38-2.58.13-1.87.39-2.65c.26-.78.63-1.44,1.11-1.99.48-.55,1.05-.96,1.73-1.25.67-.29,1.42-.43,2.25-.43.64,0,1.22.09,1.76.26.54.17,1.01.42,1.4.75s.7.72.93,1.19c.22.47.34,1,.35,1.58l-1.85.47c.01-.58-.1-1.05-.35-1.43-.25-.38-.57-.66-.98-.85-.41-.19-.85-.29-1.31-.29-.43,0-.85.08-1.26.25-.41.17-.77.44-1.09.8-.32.37-.57.84-.76,1.41-.19.58-.28,1.27-.28,2.09,0,1.04.15,1.89.46,2.55.31.65.73,1.13,1.28,1.44s1.17.46,1.88.46,1.27-.14,1.69-.41c.42-.28.73-.64.93-1.11.2-.46.31-.99.33-1.57l1.75.31c-.01.61-.11,1.19-.29,1.74-.18.55-.46,1.02-.84,1.43-.38.41-.87.73-1.47.95-.6.23-1.32.34-2.16.34Z"/>
    <path class="cls-1" d="M350.74,334.52c-.86,0-1.63-.14-2.29-.42s-1.23-.69-1.69-1.21-.81-1.17-1.04-1.93-.35-1.61-.35-2.56c0-1.39.23-2.55.7-3.46.47-.92,1.11-1.61,1.93-2.07.82-.46,1.75-.69,2.79-.69.82,0,1.55.13,2.21.4.66.27,1.23.67,1.7,1.21.47.53.84,1.19,1.09,1.96.25.77.38,1.65.38,2.64s-.12,1.82-.36,2.58-.59,1.41-1.06,1.93c-.47.53-1.04.93-1.7,1.21s-1.43.41-2.29.41ZM350.77,332.88c.72,0,1.33-.17,1.84-.52.5-.35.89-.85,1.15-1.5.26-.65.4-1.45.4-2.4s-.13-1.8-.41-2.48-.66-1.21-1.17-1.58c-.51-.37-1.12-.55-1.84-.55s-1.3.18-1.81.53c-.51.35-.9.87-1.17,1.54s-.41,1.5-.41,2.48c0,.72.08,1.36.23,1.92.16.56.38,1.03.67,1.4s.64.67,1.07.86c.43.2.91.3,1.45.3Z"/>
    <path class="cls-1" d="M359.76,334.5c-.44,0-.78-.1-1-.29-.22-.19-.33-.49-.33-.9s.11-.73.34-.92.56-.29.99-.29c.46,0,.8.1,1.03.29.23.19.34.5.34.92,0,.79-.46,1.19-1.37,1.19Z"/>
  </g>
  <g>
    <path class="cls-3" d="M235.1,205.98c.14.03.28.07.43.1-.36-.23-.55-.33-.59-.32.05.08.1.15.16.22Z"/>
    <path class="cls-3" d="M235.99,202.3c-.11-.02-.22-.04-.33-.05"/>
    <path class="cls-3" d="M235.53,206.08c-.36-.23-.55-.33-.59-.32.05.08.1.15.16.22.14.03.28.07.43.1Z"/>
    <path class="cls-3" d="M235.99,202.3c-.11-.02-.22-.04-.33-.05"/>
  </g>
  <g>
    <path class="cls-2" d="M244.35,198.26c-6.69-7.58-10.38-17.34-10.38-27.46,0-22.89,18.62-41.52,41.52-41.52s41.52,18.62,41.52,41.52h-6c0-19.58-15.93-35.52-35.52-35.52s-35.52,15.93-35.52,35.52c0,8.66,3.15,17,8.88,23.49l-4.5,3.97Z"/>
    <path class="cls-2" d="M275.49,116.02c-1.66,0-3-1.34-3-3v-6.42c0-1.66,1.34-3,3-3s3,1.34,3,3v6.42c0,1.66-1.34,3-3,3Z"/>
    <path class="cls-2" d="M339.68,173.8h-6.42c-1.66,0-3-1.34-3-3s1.34-3,3-3h6.42c1.66,0,3,1.34,3,3s-1.34,3-3,3Z"/>
    <path class="cls-2" d="M217.72,173.8h-6.42c-1.66,0-3-1.34-3-3s1.34-3,3-3h6.42c1.66,0,3,1.34,3,3s-1.34,3-3,3Z"/>
    <path class="cls-2" d="M318.36,130.93c-.77,0-1.54-.29-2.12-.88-1.17-1.17-1.17-3.07,0-4.24l2.52-2.52c1.17-1.17,3.07-1.17,4.24,0,1.17,1.17,1.17,3.07,0,4.24l-2.52,2.52c-.59.59-1.35.88-2.12.88Z"/>
    <path class="cls-2" d="M232.62,130.93c-.77,0-1.54-.29-2.12-.88l-2.52-2.52c-1.17-1.17-1.17-3.07,0-4.24,1.17-1.17,3.07-1.17,4.24,0l2.52,2.52c1.17,1.17,1.17,3.07,0,4.24-.59.59-1.35.88-2.12.88Z"/>
  </g>
  <path class="cls-1" d="M317.64,193.34c-39.02,2.4-51.91,26.85-64.05,47.12l7.48,4.02,5.71-8.97c1.62.96,3.37,1.67,5.2,2.11,46.07,7.3,69.91-61.9,69.91-61.9-5.52,7.71-35,4.11-56.6,4.98-21.6.87-32.8,17.34-34.13,25.72-.36,6.01,1.35,11.96,4.84,16.87,19.75-36.58,61.63-29.95,61.63-29.95Z"/>
</svg>