<?xml version="1.0" encoding="UTF-8"?>
<svg id="Layer_1" data-name="Layer 1" xmlns="http://www.w3.org/2000/svg" viewBox="0 0 774.22 404.57">
  <defs>
    <style>
      .cls-1 {
        fill: #04493b;
      }
    </style>
  </defs>
  <g>
    <path class="cls-1" d="M69.28,225.27l105.55-135.51h-78.59l-4.61,5.07v28.81h-16.59v-46.78h129.29v12.91l-105.55,135.51h85.73l4.61-5.07v-28.81h16.59v46.78H69.28v-12.91Z"/>
    <path class="cls-1" d="M317.71,238.17h-67.75v-12.91h20.97V89.76h-20.97v-12.91h67.75v12.91h-20.97v135.51h20.97v12.91Z"/>
    <path class="cls-1" d="M494.24,89.76h-20.97v-12.91h57.38v12.91h-19.13l-53.47,148.42h-25.58l-59.92-148.42h-20.05v-12.91h70.98v12.91h-22.12l41.48,107.62,6.68,21.89h.92l6.91-22.35,36.87-107.16Z"/>
    <path class="cls-1" d="M582.74,238.17h-56.46v-12.91h17.98l59.69-148.42h24.43l54.62,148.42h17.28v12.91h-65.91v-12.91h20.51l-14.98-40.56h-61.3l-15.67,40.56h19.82v12.91ZM583.89,171.8h52.08l-18.9-53.24-5.76-24.43h-.92l-6.68,24.89-19.82,52.77Z"/>
  </g>
  <g>
    <path class="cls-1" d="M60.54,338.53v-44.16h7.29v44.16h-7.29ZM62.48,338.53v-6.29h25.29v6.29h-25.29Z"/>
    <path class="cls-1" d="M96.53,338.53l15.39-44.16h10.64l15.39,44.16h-7.9l-12.38-38.2h-.87l-12.38,38.2h-7.9ZM104.23,329.03v-5.35h26.96v5.35h-26.96Z"/>
    <path class="cls-1" d="M149.19,338.53v-44.16h9.63l22.15,34.46h.6l-.47-34.46h7.09v44.16h-8.76l-23.02-35.53h-.6l.47,35.53h-7.09Z"/>
    <path class="cls-1" d="M203.12,338.53v-44.16h7.29v44.16h-7.29ZM206.8,338.53v-6.16h12.98c2.85,0,5.22-.65,7.09-1.94,1.87-1.29,3.27-3.12,4.18-5.49.91-2.36,1.37-5.15,1.37-8.36,0-2.77-.29-5.16-.87-7.19-.58-2.03-1.46-3.69-2.64-4.98-1.18-1.29-2.68-2.26-4.48-2.91-1.81-.65-3.91-.97-6.32-.97h-11.31v-6.16h11.11c5.08,0,9.25.87,12.51,2.61,3.26,1.74,5.66,4.23,7.23,7.46,1.56,3.23,2.34,7.13,2.34,11.68,0,3.12-.36,5.9-1.07,8.33-.71,2.43-1.68,4.53-2.91,6.29-1.23,1.76-2.68,3.22-4.35,4.38-1.67,1.16-3.5,2.02-5.49,2.58-1.99.56-4.05.84-6.19.84h-13.18Z"/>
    <path class="cls-1" d="M269.29,339.4c-2.9,0-5.48-.3-7.73-.9-2.25-.6-4.15-1.49-5.69-2.68-1.54-1.18-2.7-2.65-3.48-4.42-.78-1.76-1.15-3.8-1.1-6.12l6.49-1.74c-.09,2.23.33,4.08,1.27,5.55.94,1.47,2.33,2.58,4.18,3.31,1.85.74,3.98,1.1,6.39,1.1s4.35-.29,5.96-.87c1.61-.58,2.82-1.37,3.65-2.38.82-1,1.24-2.15,1.24-3.45,0-1.47-.5-2.64-1.51-3.51-1-.87-2.33-1.56-3.98-2.07-1.65-.51-3.5-.99-5.55-1.44-2.1-.45-4.17-.96-6.22-1.54-2.05-.58-3.91-1.35-5.59-2.31-1.67-.96-3.01-2.2-4.01-3.71-1-1.52-1.51-3.43-1.51-5.75,0-2.68.67-4.97,2.01-6.89,1.34-1.92,3.25-3.41,5.72-4.48s5.41-1.61,8.8-1.61,6.37.52,8.93,1.57c2.56,1.05,4.59,2.57,6.09,4.55,1.49,1.99,2.26,4.38,2.31,7.19l-6.69,1.74c0-1.52-.26-2.85-.77-4.01-.51-1.16-1.24-2.12-2.17-2.88-.94-.76-2.05-1.33-3.35-1.71-1.29-.38-2.77-.57-4.42-.57-1.92,0-3.59.28-5.02.84-1.43.56-2.53,1.32-3.31,2.27-.78.96-1.17,2.09-1.17,3.38,0,1.61.57,2.87,1.71,3.78,1.14.92,2.64,1.65,4.52,2.21,1.87.56,3.88,1.08,6.02,1.57,1.92.4,3.82.88,5.72,1.44,1.9.56,3.63,1.3,5.22,2.24,1.58.94,2.85,2.16,3.81,3.68.96,1.52,1.44,3.46,1.44,5.82,0,2.59-.68,4.84-2.04,6.76-1.36,1.92-3.38,3.4-6.06,4.45-2.68,1.05-6.04,1.57-10.1,1.57Z"/>
    <path class="cls-1" d="M319.33,339.4c-3.26,0-6.18-.49-8.77-1.47-2.59-.98-4.77-2.42-6.56-4.32-1.78-1.9-3.15-4.24-4.08-7.03-.94-2.79-1.4-5.99-1.4-9.6s.48-6.94,1.44-9.84c.96-2.9,2.33-5.36,4.11-7.39,1.78-2.03,3.92-3.58,6.42-4.65,2.5-1.07,5.29-1.61,8.36-1.61,2.36,0,4.55.32,6.56.97,2.01.65,3.75,1.57,5.22,2.78,1.47,1.2,2.62,2.68,3.45,4.42.82,1.74,1.26,3.7,1.3,5.89l-6.89,1.74c.04-2.14-.39-3.91-1.3-5.32-.91-1.41-2.13-2.46-3.65-3.18-1.52-.71-3.14-1.07-4.88-1.07-1.61,0-3.17.31-4.68.94-1.52.63-2.87,1.62-4.05,2.98-1.18,1.36-2.12,3.11-2.81,5.25-.69,2.14-1.04,4.73-1.04,7.76,0,3.88.57,7.04,1.71,9.47,1.14,2.43,2.72,4.21,4.75,5.35,2.03,1.14,4.36,1.71,6.99,1.71s4.73-.51,6.29-1.54c1.56-1.03,2.71-2.4,3.45-4.11.74-1.72,1.15-3.67,1.24-5.85l6.49,1.14c-.05,2.27-.4,4.43-1.07,6.46-.67,2.03-1.71,3.8-3.11,5.32-1.4,1.52-3.22,2.7-5.45,3.55-2.23.85-4.91,1.27-8.03,1.27Z"/>
    <path class="cls-1" d="M344.63,338.53l15.39-44.16h10.64l15.39,44.16h-7.9l-12.38-38.2h-.87l-12.38,38.2h-7.9ZM352.32,329.03v-5.35h26.96v5.35h-26.96Z"/>
    <path class="cls-1" d="M397.28,338.53v-44.16h7.29v44.16h-7.29ZM401.7,325.35v-5.95h10.64c3.88,0,6.79-.76,8.73-2.27,1.94-1.52,2.91-4.01,2.91-7.49,0-3.12-.9-5.46-2.71-7.03-1.81-1.56-4.58-2.34-8.33-2.34h-11.24v-5.89h11.37c2.9,0,5.48.33,7.73,1,2.25.67,4.17,1.65,5.75,2.94,1.58,1.29,2.79,2.91,3.61,4.85.83,1.94,1.24,4.18,1.24,6.72,0,3.35-.76,6.17-2.27,8.46-1.52,2.3-3.76,4.04-6.72,5.22-2.97,1.18-6.64,1.77-11.01,1.77h-9.7Z"/>
    <path class="cls-1" d="M443.31,338.53v-44.16h7.43v44.16h-7.43Z"/>
    <path class="cls-1" d="M465.66,338.53v-44.16h9.63l22.15,34.46h.6l-.47-34.46h7.09v44.16h-8.76l-23.02-35.53h-.6l.47,35.53h-7.09Z"/>
    <path class="cls-1" d="M536.78,339.4c-3.61,0-6.84-.84-9.67-2.51-2.83-1.67-5.06-4.18-6.69-7.53-1.63-3.35-2.44-7.54-2.44-12.58,0-3.66.45-6.91,1.34-9.77.89-2.85,2.23-5.29,4.01-7.29,1.78-2.01,3.96-3.55,6.52-4.62,2.56-1.07,5.54-1.61,8.93-1.61,2.54,0,4.84.31,6.89.94,2.05.62,3.84,1.52,5.35,2.68,1.52,1.16,2.73,2.57,3.65,4.21.91,1.65,1.44,3.55,1.57,5.69l-6.96,2.07c-.13-2.23-.71-4.04-1.74-5.42-1.03-1.38-2.33-2.39-3.91-3.01-1.58-.62-3.27-.94-5.05-.94-2.63,0-4.92.58-6.86,1.74-1.94,1.16-3.45,2.98-4.52,5.45-1.07,2.48-1.61,5.68-1.61,9.6,0,3.03.32,5.61.97,7.73.65,2.12,1.54,3.84,2.68,5.15,1.14,1.32,2.5,2.27,4.08,2.88,1.58.6,3.29.9,5.12.9,2.23,0,4.15-.4,5.75-1.2,1.61-.8,2.9-2.03,3.88-3.68.98-1.65,1.58-3.75,1.81-6.29h-9.5v-5.55h16.73v22.08h-5.55l.87-11.78h-1.07c-.63,2.81-1.55,5.15-2.78,7.03-1.23,1.87-2.8,3.28-4.72,4.22-1.92.94-4.28,1.4-7.09,1.4Z"/>
    <path class="cls-1" d="M610.51,339.4c-3.26,0-6.18-.49-8.77-1.47-2.59-.98-4.77-2.42-6.56-4.32-1.78-1.9-3.15-4.24-4.08-7.03-.94-2.79-1.4-5.99-1.4-9.6s.48-6.94,1.44-9.84c.96-2.9,2.33-5.36,4.11-7.39,1.78-2.03,3.92-3.58,6.42-4.65,2.5-1.07,5.29-1.61,8.36-1.61,2.36,0,4.55.32,6.56.97,2.01.65,3.75,1.57,5.22,2.78,1.47,1.2,2.62,2.68,3.45,4.42.82,1.74,1.26,3.7,1.3,5.89l-6.89,1.74c.04-2.14-.39-3.91-1.3-5.32-.91-1.41-2.13-2.46-3.65-3.18-1.52-.71-3.14-1.07-4.88-1.07-1.61,0-3.17.31-4.68.94-1.52.63-2.87,1.62-4.05,2.98-1.18,1.36-2.12,3.11-2.81,5.25-.69,2.14-1.04,4.73-1.04,7.76,0,3.88.57,7.04,1.71,9.47,1.14,2.43,2.72,4.21,4.75,5.35,2.03,1.14,4.36,1.71,6.99,1.71s4.73-.51,6.29-1.54c1.56-1.03,2.71-2.4,3.45-4.11.74-1.72,1.15-3.67,1.24-5.85l6.49,1.14c-.05,2.27-.4,4.43-1.07,6.46-.67,2.03-1.71,3.8-3.11,5.32-1.4,1.52-3.22,2.7-5.45,3.55-2.23.85-4.91,1.27-8.03,1.27Z"/>
    <path class="cls-1" d="M658.55,339.4c-3.21,0-6.06-.52-8.53-1.57-2.48-1.05-4.57-2.55-6.29-4.52-1.72-1.96-3.01-4.35-3.88-7.16-.87-2.81-1.3-5.98-1.3-9.5,0-5.17.87-9.47,2.61-12.88,1.74-3.41,4.12-5.98,7.16-7.69,3.03-1.72,6.49-2.58,10.37-2.58,3.03,0,5.78.5,8.23,1.51,2.45,1,4.56,2.5,6.32,4.48,1.76,1.99,3.11,4.42,4.05,7.29.94,2.88,1.4,6.15,1.4,9.8s-.45,6.77-1.34,9.6c-.89,2.83-2.21,5.23-3.95,7.19-1.74,1.96-3.85,3.46-6.32,4.48-2.48,1.03-5.32,1.54-8.53,1.54ZM658.68,333.31c2.68,0,4.95-.65,6.82-1.94,1.87-1.29,3.3-3.15,4.28-5.59.98-2.43,1.47-5.41,1.47-8.93s-.5-6.69-1.51-9.23c-1-2.54-2.45-4.49-4.35-5.85-1.9-1.36-4.18-2.04-6.86-2.04s-4.83.66-6.72,1.97c-1.9,1.32-3.35,3.22-4.35,5.72-1,2.5-1.51,5.58-1.51,9.23,0,2.68.29,5.05.87,7.13.58,2.07,1.4,3.81,2.48,5.22,1.07,1.4,2.4,2.48,3.98,3.21,1.58.74,3.38,1.1,5.39,1.1Z"/>
    <path class="cls-1" d="M692.07,339.34c-1.65,0-2.89-.36-3.71-1.07-.83-.71-1.24-1.83-1.24-3.35s.42-2.7,1.27-3.41c.85-.71,2.07-1.07,3.68-1.07,1.69,0,2.97.36,3.81,1.07.85.71,1.27,1.85,1.27,3.41,0,2.94-1.7,4.42-5.08,4.42Z"/>
  </g>
</svg>