<?xml version="1.0" encoding="UTF-8"?>
<svg version="1.1" xmlns="http://www.w3.org/2000/svg" width="489" height="521">
<path d="M0 0 C161.37 0 322.74 0 489 0 C489 171.93 489 343.86 489 521 C327.63 521 166.26 521 0 521 C0 349.07 0 177.14 0 0 Z " fill="#FDFDFD" transform="translate(0,0)"/>
<path d="M0 0 C74.91 0 149.82 0 227 0 C227 0.33 227 0.66 227 1 C225.77603516 1.11214844 225.77603516 1.11214844 224.52734375 1.2265625 C181.05294189 6.05179535 143.39710455 27.48584593 112 57 C110.96939453 57.93199219 110.96939453 57.93199219 109.91796875 58.8828125 C93.87300008 73.94819361 82.23453595 94.2321617 73 114 C72.46632813 115.12664062 71.93265625 116.25328125 71.3828125 117.4140625 C64.68337556 132.23613284 60.46220181 147.95037282 58 164 C57.81904093 165.17694113 57.63808186 166.35388226 57.45163918 167.56648827 C55.51859912 182.34927185 55.68911622 197.17921598 55.68335578 212.05839971 C55.67953785 216.16462723 55.66419166 220.270816 55.6503849 224.37701988 C55.62535159 232.32272416 55.61026873 240.2684152 55.59880099 248.21414938 C55.5850781 257.41843048 55.55874508 266.62264799 55.5324707 275.8269043 C55.46934801 300.09291087 55.42319994 324.3589592 55.375 348.625 C55.25125 402.86875 55.1275 457.1125 55 513 C183.37 513 311.74 513 444 513 C443.814375 433.3359375 443.814375 433.3359375 443.625 352.0625 C443.59100098 335.32281494 443.55700195 318.58312988 443.52197266 301.33618164 C443.48204233 286.26793314 443.48204233 286.26793314 443.43954468 271.19969177 C443.42075526 264.5132915 443.40719656 257.82690648 443.39730835 251.14048767 C443.3858556 243.40864588 443.36751409 235.67685505 443.34107121 227.94504949 C443.32778382 223.99930852 443.31731726 220.0536252 443.31574559 216.10786068 C443.54427982 182.60041341 443.54427982 182.60041341 438.3125 149.625 C437.92167236 148.01733765 437.92167236 148.01733765 437.52294922 146.37719727 C435.06753073 136.62465926 431.91483483 127.25836537 428 118 C427.70399902 117.29117676 427.40799805 116.58235352 427.10302734 115.85205078 C417.69762228 93.69269288 403.54770417 74.33569008 387 57 C386.19949219 56.14664063 385.39898437 55.29328125 384.57421875 54.4140625 C359.67534515 28.57791542 326.58636116 12.17422401 291.875 4.375 C290.93785156 4.1584375 290.00070312 3.941875 289.03515625 3.71875 C283.69680839 2.50922223 278.44369725 1.57639147 273 1 C273 0.67 273 0.34 273 0 C344.28 0 415.56 0 489 0 C489 171.93 489 343.86 489 521 C327.63 521 166.26 521 0 521 C0 349.07 0 177.14 0 0 Z " fill="#FEFEFE" transform="translate(0,0)"/>
<path d="M0 0 C5.93083174 5.02630281 10.7047347 10.83189992 15.44140625 16.97265625 C16.12203125 17.82601562 16.80265625 18.679375 17.50390625 19.55859375 C35.59408661 43.08996117 44.69061673 75.77566786 40.9453125 105.27734375 C37.77692321 127.14544241 30.6798552 148.74206948 16.44140625 165.97265625 C15.57678344 167.05074959 14.71220242 168.12887645 13.84765625 169.20703125 C-5.23978097 192.67996985 -33.93577655 210.3720073 -64.4765625 213.76953125 C-76.29800179 214.50935084 -88.88352232 215.13850731 -100.55859375 212.97265625 C-99.30941955 209.51340462 -97.8833158 206.82572422 -95.55859375 203.97265625 C-93.05853966 204.57856456 -90.64205518 205.26119617 -88.18359375 206.03515625 C-73.76187901 209.52084745 -57.47394338 205.88086652 -44.55859375 198.97265625 C-43.66269531 198.51503906 -42.76679688 198.05742187 -41.84375 197.5859375 C-9.27017467 179.90803131 11.91687055 142.7152289 24.44140625 108.97265625 C23.34828125 109.59140625 22.25515625 110.21015625 21.12890625 110.84765625 C11.68093062 115.50031313 1.2491812 115.27306335 -9.05933952 115.30818176 C-11.45382178 115.31660099 -13.84794568 115.33722104 -16.24232483 115.36071777 C-21.32686001 115.40853602 -26.41143148 115.44171901 -31.49609375 115.47265625 C-37.39315304 115.50856366 -43.29003348 115.55077376 -49.18692207 115.6085968 C-51.52421255 115.6283837 -53.86135931 115.63692544 -56.19871521 115.64489746 C-74.05748448 115.77210489 -89.90816392 118.52756239 -103.55859375 130.97265625 C-104.35716797 131.81763672 -104.35716797 131.81763672 -105.171875 132.6796875 C-106.55859375 133.97265625 -106.55859375 133.97265625 -108.55859375 133.97265625 C-108.82671875 134.52953125 -109.09484375 135.08640625 -109.37109375 135.66015625 C-111.11542494 139.05701172 -113.13394837 142.27623783 -115.12109375 145.53515625 C-115.59546875 146.33953125 -116.06984375 147.14390625 -116.55859375 147.97265625 C-116.94144531 148.57078125 -117.32429688 149.16890625 -117.71875 149.78515625 C-118.99891928 153.11955065 -118.98363794 156.44727342 -118.99609375 159.97265625 C-118.99996094 160.72361572 -119.00382812 161.4745752 -119.0078125 162.24829102 C-118.88219888 168.38700226 -117.38917832 173.22311464 -114.65234375 178.75 C-113.55859375 180.97265625 -113.55859375 180.97265625 -113.55859375 182.97265625 C-110.99616576 180.67473696 -109.13723871 178.01696767 -107.19799805 175.18823242 C-94.05074265 156.0499512 -76.07871489 143.83049123 -53.55859375 137.97265625 C-52.45386719 137.67230469 -51.34914063 137.37195313 -50.2109375 137.0625 C-38.72704316 134.32823944 -27.29482072 134.67439426 -15.55859375 134.97265625 C-15.55859375 135.30265625 -15.55859375 135.63265625 -15.55859375 135.97265625 C-16.15583252 136.05717041 -16.75307129 136.14168457 -17.3684082 136.22875977 C-48.54715406 140.78081493 -74.83712706 152.22520052 -94.51660156 177.96044922 C-101.86277043 187.85685623 -108.19991792 198.42667125 -114.55859375 208.97265625 C-119.86052763 208.43150279 -124.3125185 207.10523219 -129.18359375 204.91015625 C-129.87654541 204.60142578 -130.56949707 204.29269531 -131.28344727 203.97460938 C-141.52864863 199.28813706 -150.96730271 193.26577258 -159.55859375 185.97265625 C-160.49316406 185.18375 -161.42773438 184.39484375 -162.390625 183.58203125 C-183.53782392 165.24531906 -195.60804294 141.00951788 -201.55859375 113.97265625 C-201.73511475 113.21839355 -201.91163574 112.46413086 -202.09350586 111.68701172 C-207.4012467 80.70986599 -199.50396954 48.04799259 -181.83911133 22.40380859 C-174.50982621 12.06595324 -166.59701316 3.72015007 -156.55859375 -4.02734375 C-155.74003906 -4.68476562 -154.92148438 -5.3421875 -154.078125 -6.01953125 C-107.24265217 -42.18087306 -44.70987862 -35.42660611 0 0 Z " fill="#FDFDFD" transform="translate(330.55859375,106.02734375)"/>
<path d="M0 0 C3.00126596 0.00315795 6.00154066 -0.02038098 9.00268555 -0.0456543 C21.04496846 -0.08484831 32.41500653 0.87641719 44.20385742 3.31567383 C45.68023859 3.6086548 47.15663834 3.90154215 48.63305664 4.19433594 C82.70513041 11.09137873 113.39125268 30.61862216 138.20385742 54.31567383 C139.1294043 55.18836914 140.05495117 56.06106445 141.00854492 56.96020508 C178.63736909 93.36316103 196.4516782 144.21903046 197.3805275 195.77482796 C197.46392017 203.40988383 197.457273 211.04425557 197.43600288 218.67959006 C197.42711569 222.70603398 197.43020202 226.73247438 197.43163872 230.75892544 C197.43269162 238.53497875 197.4235598 246.31098495 197.41063606 254.08702623 C197.39610694 263.10298443 197.39463956 272.11891525 197.39306641 281.1348877 C197.38261075 304.88265708 197.35468822 328.63041619 197.32885742 352.37817383 C197.28760742 405.48754883 197.24635742 458.59692383 197.20385742 513.31567383 C68.83385742 513.31567383 -59.53614258 513.31567383 -191.79614258 513.31567383 C-191.85801758 459.19567383 -191.91989258 405.07567383 -191.98364258 349.31567383 C-192.01095459 332.25364258 -192.0382666 315.19161133 -192.06640625 297.61254883 C-192.07995605 276.71020508 -192.07995605 276.71020508 -192.08247375 266.91186523 C-192.08525845 260.09705463 -192.09620787 253.28231877 -192.11286926 246.4675293 C-192.13210225 238.58912578 -192.14061876 230.71079334 -192.13647743 222.83236623 C-192.13468699 218.81091856 -192.1373215 214.78962925 -192.15378797 210.76821136 C-192.30077553 172.97868027 -187.6343869 137.74785143 -169.69995117 104.02612305 C-168.90441602 102.5205803 -168.13885177 100.99928149 -167.37817383 99.47583008 C-144.65751216 55.16720834 -101.23429229 22.97974376 -54.79614258 7.31567383 C-36.68670459 1.72091439 -18.87692748 -0.04140686 0 0 Z M-110.79614258 56.31567383 C-111.6237207 57.03368164 -112.45129883 57.75168945 -113.30395508 58.49145508 C-115.83899834 60.72849168 -118.32451598 63.00882234 -120.79614258 65.31567383 C-121.65852539 66.11231445 -122.5209082 66.90895508 -123.40942383 67.72973633 C-145.9786365 89.35176062 -161.50268013 118.04858374 -169.98364258 147.94067383 C-170.34063232 149.16294678 -170.34063232 149.16294678 -170.70483398 150.40991211 C-175.97507592 169.84739167 -176.22959005 189.54871868 -176.14436077 209.53930904 C-176.13107252 213.46910102 -176.13565679 217.39888409 -176.13781452 221.32869244 C-176.13939672 228.92520887 -176.12567063 236.52161721 -176.10631054 244.11810602 C-176.08455311 252.92204991 -176.08231774 261.7259306 -176.07995605 270.52990723 C-176.06426002 293.72934633 -176.02237625 316.92876175 -175.98364258 340.12817383 C-175.92176758 392.00004883 -175.85989258 443.87192383 -175.79614258 497.31567383 C-57.98614258 497.31567383 59.82385742 497.31567383 181.20385742 497.31567383 C181.24510742 445.87692383 181.28635742 394.43817383 181.32885742 341.44067383 C181.34706543 325.21153809 181.36527344 308.98240234 181.3840332 292.26147461 C181.39072295 277.68675274 181.39072295 277.68675274 181.39474487 263.11203003 C181.39660469 256.63113951 181.40391871 250.15028375 181.41500854 243.66940308 C181.42779967 236.18313275 181.43351526 228.69689558 181.43074732 221.21061426 C181.42954995 217.3865669 181.43135866 213.56259352 181.44228768 209.73855996 C181.49498309 190.34545062 181.21171653 171.59764045 176.45385742 152.69067383 C176.19072754 151.62655273 175.92759766 150.56243164 175.65649414 149.46606445 C173.45035975 140.79920178 170.76851052 132.5139551 167.20385742 124.31567383 C166.76734863 123.29666992 166.76734863 123.29666992 166.32202148 122.25708008 C147.31454989 78.40915618 111.19961982 44.2049951 66.89135742 26.50317383 C46.06876784 18.48101546 24.66953082 14.86787032 2.39135742 14.87817383 C1.68652222 14.87743866 0.98168701 14.87670349 0.25549316 14.87594604 C-39.81636835 14.98433033 -80.59840877 29.7397866 -110.79614258 56.31567383 Z " fill="#064A3C" transform="translate(246.796142578125,-0.315673828125)"/>
<path d="M0 0 C39.10366573 -1.03989968 74.95912052 10.30856965 103.99511719 37.06201172 C105.41244141 38.35558594 105.41244141 38.35558594 106.85839844 39.67529297 C132.29294536 63.95862985 147.0396176 98.76077435 148.18261719 133.76513672 C148.81377296 166.36827728 138.8256282 198.73211033 117.99511719 224.06201172 C117.53733887 224.63048828 117.07956055 225.19896484 116.60791016 225.78466797 C110.07779104 233.87144871 103.38730474 240.84431811 94.99511719 247.06201172 C93.91561876 247.89134595 92.83619467 248.72077694 91.75683594 249.55029297 C62.40170086 271.70130086 25.59784951 279.636354 -10.63916016 275.66357422 C-34.65117468 271.98519815 -57.20637029 262.52131478 -76.00488281 247.06201172 C-76.57335937 246.6042334 -77.14183594 246.14645508 -77.72753906 245.67480469 C-85.82526481 239.13584742 -92.72119948 232.4165888 -99.00488281 224.06201172 C-99.7409375 223.15193359 -100.47699219 222.24185547 -101.23535156 221.30419922 C-118.09623521 200.00318614 -127.18010183 173.01754837 -129.00488281 146.06201172 C-129.05999023 145.30726563 -129.11509766 144.55251953 -129.171875 143.77490234 C-131.33270188 109.29362238 -118.61377468 75.53977432 -96.68847656 49.28857422 C-94.51062861 46.82665914 -92.27775907 44.43617479 -90.00488281 42.06201172 C-89.33328125 41.32724609 -88.66167969 40.59248047 -87.96972656 39.83544922 C-65.97966351 16.57119559 -31.93837068 0.98786485 0 0 Z M-66.00488281 42.06201172 C-67.02453125 42.86767578 -68.04417969 43.67333984 -69.09472656 44.50341797 C-74.99156328 49.23634551 -80.38531614 54.06270721 -85.00488281 60.06201172 C-86.15730469 61.5528125 -86.15730469 61.5528125 -87.33300781 63.07373047 C-97.1504026 76.12105766 -104.79534956 90.2308651 -109.00488281 106.06201172 C-109.32328125 107.24666016 -109.64167969 108.43130859 -109.96972656 109.65185547 C-112.12907036 119.45348516 -112.31821035 129.25325422 -112.37988281 139.24951172 C-112.38782867 139.92634003 -112.39577454 140.60316833 -112.40396118 141.30050659 C-112.65521316 169.18440863 -102.04254198 195.98007848 -84.00488281 217.06201172 C-83.55854492 217.58666016 -83.11220703 218.11130859 -82.65234375 218.65185547 C-68.73290707 234.83678682 -49.04015273 249.60313053 -28.00488281 255.06201172 C-25.37180718 255.364647 -25.37180718 255.364647 -23.00488281 254.06201172 C-21.10422 251.68359537 -19.74001001 249.05816306 -18.31738281 246.37451172 C-17.44216996 244.81180759 -16.56186385 243.25194625 -15.67675781 241.69482422 C-15.23267578 240.91268555 -14.78859375 240.13054687 -14.33105469 239.32470703 C0.66419611 213.74002655 23.26295496 194.06748567 52.08544922 186.32983398 C59.64045538 184.40708763 67.26563264 183.06790354 74.99511719 182.06201172 C74.99511719 181.73201172 74.99511719 181.40201172 74.99511719 181.06201172 C43.57908036 180.2636112 16.15460162 186.90489637 -7.25488281 208.87451172 C-11.44636687 213.21728076 -14.70164393 218.19004222 -18.02441406 223.20654297 C-19.57697831 225.44505276 -20.99362112 227.2537796 -23.00488281 229.06201172 C-23.27300781 228.23701172 -23.54113281 227.41201172 -23.81738281 226.56201172 C-24.93116039 223.03271312 -24.93116039 223.03271312 -26.62988281 219.74951172 C-29.45541654 212.06759191 -29.81258367 201.7797825 -26.54003906 194.17529297 C-24.45366363 190.23632202 -22.44739102 186.5012637 -19.27441406 183.33544922 C-17.76954289 182.12563977 -17.76954289 182.12563977 -18.00488281 180.06201172 C-17.40417969 179.78744141 -16.80347656 179.51287109 -16.18457031 179.22998047 C-13.72781951 178.03366465 -13.72781951 178.03366465 -11.12988281 175.37451172 C2.44837634 163.38676449 19.10015874 161.94698737 36.31496811 161.83221626 C38.72153579 161.81559522 41.12796026 161.79235303 43.53445435 161.76731873 C50.37071408 161.69711387 57.20703009 161.63658249 64.04345703 161.58520508 C68.24255735 161.55318649 72.44148602 161.5118645 76.64044571 161.46500969 C78.227824 161.44913714 79.81524153 161.43674883 81.40267563 161.42810249 C93.4085581 161.36174634 104.32301236 161.10282577 114.99511719 155.06201172 C102.56092566 185.79109651 85.65986687 218.3361946 57.99511719 238.06201172 C57.0425 238.74134766 56.08988281 239.42068359 55.10839844 240.12060547 C40.7414167 249.65653187 24.22304863 254.2388357 6.99511719 253.06201172 C4.4883533 252.42206212 2.22849367 251.65638858 -0.13769531 250.62060547 C-2.51075503 249.91067338 -3.72209368 250.13198652 -6.00488281 251.06201172 C-9.00437721 254.6735801 -9.00437721 254.6735801 -10.00488281 259.06201172 C20.28766295 264.64243824 53.07508998 256.67338342 78.4284668 239.54638672 C106.77393227 219.60001602 123.96746022 191.16906515 130.74902344 157.29638672 C135.67917469 126.54327539 127.70829736 93.58636568 109.99511719 68.06201172 C107.12596362 64.27229911 104.10820555 60.65215488 100.99511719 57.06201172 C100.13887582 55.98031744 99.28431576 54.89728649 98.43261719 53.81201172 C77.62435126 30.33601939 46.40738122 18.09578264 15.703125 15.89794922 C-14.2482529 14.32501034 -42.58314491 23.31764025 -66.00488281 42.06201172 Z " fill="#074B3D" transform="translate(240.0048828125,59.93798828125)"/>
<path d="M0 0 C14.68248987 11.24093212 24.8181898 26.6218839 27.31640625 45.15234375 C27.37945829 46.94302181 27.40311739 48.73571954 27.37890625 50.52734375 C27.36988281 51.40132812 27.36085938 52.2753125 27.3515625 53.17578125 C27.33416016 54.15417969 27.33416016 54.15417969 27.31640625 55.15234375 C25.83733733 55.17923591 24.35813142 55.19868996 22.87890625 55.21484375 C22.05519531 55.22644531 21.23148437 55.23804688 20.3828125 55.25 C18.31640625 55.15234375 18.31640625 55.15234375 17.31640625 54.15234375 C17.20787134 52.40372583 17.13057197 50.65315134 17.06640625 48.90234375 C15.96290992 34.80768606 8.69825381 21.5754344 -1.51953125 11.9296875 C-14.75113677 1.06257466 -29.77565817 -3.01372077 -46.68359375 -1.84765625 C-61.43152959 0.19293865 -74.34734281 8.1936527 -83.71484375 19.6328125 C-87.50207596 24.80816161 -90.43732147 30.14808989 -92.68359375 36.15234375 C-93.04066406 37.00183594 -93.39773437 37.85132813 -93.765625 38.7265625 C-97.3739712 52.19260344 -95.77398047 68.76369682 -89.15234375 80.9765625 C-88.15492426 82.6511516 -87.12552829 84.30755159 -86.05078125 85.93359375 C-84.61391113 88.26542869 -83.63182195 90.58761223 -82.68359375 93.15234375 C-84.33359375 94.80234375 -85.98359375 96.45234375 -87.68359375 98.15234375 C-95.09037704 95.07813047 -98.58374929 86.07089229 -101.58203125 79.078125 C-107.98682586 62.06680881 -107.50167385 44.11819857 -100.37109375 27.46484375 C-91.59873042 9.26741148 -77.7899589 -2.70970048 -58.95703125 -9.88671875 C-39.14598873 -15.85793438 -16.85505994 -11.60472104 0 0 Z " fill="#CD9E37" transform="translate(288.68359375,150.84765625)"/>
<path d="M0 0 C2.64 0 5.28 0 8 0 C13.49328737 11.27708513 17.66116154 23.09847852 22.06152344 34.83007812 C27.13428541 52.4051296 27.13428541 52.4051296 37.3125 66.1875 C38.199375 66.455625 39.08625 66.72375 40 67 C40 68.32 40 69.64 40 71 C29.77 71 19.54 71 9 71 C9.33 69.35 9.66 67.7 10 66 C13.465 65.01 13.465 65.01 17 64 C16.6390625 63.01257813 16.278125 62.02515625 15.90625 61.0078125 C15.43733319 59.71360209 14.96859231 58.41932794 14.5 57.125 C14.26152344 56.47402344 14.02304687 55.82304687 13.77734375 55.15234375 C12 50.2265625 12 50.2265625 12 48 C4.41 48 -3.18 48 -11 48 C-11.33 49.65 -11.66 51.3 -12 53 C-12.73291258 55.07342108 -13.55069862 57.0959765 -14.37890625 59.1328125 C-15.15781609 61.14647797 -15.15781609 61.14647797 -15 64 C-12.69 64.99 -10.38 65.98 -8 67 C-8 68.32 -8 69.64 -8 71 C-15.92 71 -23.84 71 -32 71 C-32 69.35 -32 67.7 -32 66 C-30.906875 65.87625 -29.81375 65.7525 -28.6875 65.625 C-26.69146158 65.14454076 -26.69146158 65.14454076 -25 64 C-24.06810804 62.0453732 -24.06810804 62.0453732 -23.57275391 59.66601562 C-21.90923064 53.47067307 -19.57072984 47.65207381 -17.1484375 41.71875 C-16.68893707 40.58344849 -16.22943665 39.44814697 -15.75601196 38.27844238 C-14.29986933 34.68391042 -12.83743373 31.09197632 -11.375 27.5 C-10.3850227 25.0574513 -9.39543549 22.61474447 -8.40625 20.171875 C-6.60430549 15.72759763 -4.80208779 11.28343743 -2.99365234 6.84179688 C-2.63185883 5.95262573 -2.27006531 5.06345459 -1.89730835 4.14733887 C-1.31116237 2.7446393 -0.67987252 1.35974503 0 0 Z " fill="#0B4E40" transform="translate(339,354)"/>
<path d="M0 0 C17.49 0 34.98 0 53 0 C53 7.87518499 53 7.87518499 51.13916016 10.60180664 C50.52689072 11.52425926 50.52689072 11.52425926 49.9022522 12.46534729 C49.2274733 13.42802773 49.2274733 13.42802773 48.5390625 14.41015625 C48.07446625 15.09951767 47.60987 15.78887909 47.13119507 16.49913025 C45.64403222 18.69749298 44.13496139 20.87975243 42.625 23.0625 C41.64829628 24.5009742 40.67302273 25.94042056 39.69921875 27.38085938 C34.35001352 35.26423516 28.86501376 43.04321805 23.26708984 50.75170898 C20.71231279 54.41219883 18.36584259 58.21465186 16 62 C28.87 62.495 28.87 62.495 42 63 C42.99 60.03 43.98 57.06 45 54 C46.4375 50.9375 46.4375 50.9375 48 49 C49.32 49 50.64 49 52 49 C52.34546754 50.62246365 52.67554219 52.24820461 53 53.875 C53.185625 54.77992188 53.37125 55.68484375 53.5625 56.6171875 C54.13497455 61.04364247 54 65.5366794 54 70 C35.52 70 17.04 70 -2 70 C-2 62.53309244 -1.84831528 60.66836102 2.375 55.4375 C3.30828492 54.2087713 4.23920735 52.9782452 5.16796875 51.74609375 C5.88218994 50.81192627 5.88218994 50.81192627 6.61083984 49.85888672 C8.75839773 46.98515987 10.72244482 44.00018148 12.6875 41 C18.86993201 31.63509838 25.22017512 22.38445324 31.5546875 13.12207031 C32.71299456 11.4213938 33.85861409 9.71207886 35 8 C27.08 7.67 19.16 7.34 11 7 C10.67 8.65 10.34 10.3 10 12 C9.35760544 13.62275573 8.67037328 15.22854807 7.9375 16.8125 C7.39416016 17.99779297 7.39416016 17.99779297 6.83984375 19.20703125 C6.56269531 19.79871094 6.28554687 20.39039063 6 21 C4.68 21 3.36 21 2 21 C1.65162671 19.56607064 1.32248231 18.1274731 1 16.6875 C0.814375 15.88699219 0.62875 15.08648437 0.4375 14.26171875 C-0.19478717 9.54779205 0 4.75614255 0 0 Z " fill="#0B4E40" transform="translate(122,355)"/>
<path d="M0 0 C10.89 0 21.78 0 33 0 C33 1.32 33 2.64 33 4 C30.09399739 5.25664978 28.20395416 6 25 6 C25.37809814 7.06323486 25.75619629 8.12646973 26.14575195 9.22192383 C27.5643436 13.21447611 28.9776216 17.20889294 30.3894043 21.20385742 C30.99801052 22.92376154 31.60800495 24.64317515 32.21948242 26.36206055 C38.73246796 44.67617114 38.73246796 44.67617114 41 54 C41.2278418 53.04222656 41.45568359 52.08445312 41.69042969 51.09765625 C44.14885908 40.9280965 47.07475472 30.96623229 50.25 21 C50.71397754 19.53138763 51.17752087 18.06263802 51.640625 16.59375 C52.75544866 13.06091402 53.87602125 9.52993555 55 6 C54.05125 5.855625 53.1025 5.71125 52.125 5.5625 C49 5 49 5 47 4 C47 2.68 47 1.36 47 0 C55.58 0 64.16 0 73 0 C73 1.32 73 2.64 73 4 C71.37360596 4.50345947 71.37360596 4.50345947 69.71435547 5.01708984 C66.36409586 6.46751033 65.99677117 7.00572105 64.06298828 10.43212891 C63.53866187 11.85402034 63.04265742 13.28656816 62.5703125 14.7265625 C62.29344604 15.49913391 62.01657959 16.27170532 61.73132324 17.06768799 C60.83776256 19.57882809 59.98142048 22.1009798 59.125 24.625 C58.51859824 26.34999666 57.90969897 28.07411733 57.29833984 29.79736328 C56.08138109 33.23867447 54.87823679 36.68429534 53.6875 40.13476562 C51.78304119 45.64548257 49.80250023 51.12683436 47.81201172 56.60693359 C46.19248999 61.06578136 44.59606398 65.53270981 43 70 C39.37 70.33 35.74 70.66 32 71 C31.70456299 70.22849609 31.40912598 69.45699219 31.10473633 68.66210938 C29.6772368 64.94015012 28.24607351 61.21962337 26.8125 57.5 C26.54932983 56.8169278 26.28615967 56.13385559 26.01501465 55.43008423 C21.17410388 42.8823953 16.14804897 30.41519035 11.01489258 17.984375 C10.74552383 17.32846878 10.47615509 16.67256256 10.19862366 15.9967804 C9.46931839 14.22098904 8.73625412 12.44674281 8.00292969 10.67260742 C7 8 7 8 7 6 C4.03 5.505 4.03 5.505 1 5 C0.67 3.35 0.34 1.7 0 0 Z " fill="#094C3F" transform="translate(237,355)"/>
<path d="M0 0 C10.23 0 20.46 0 31 0 C31 1.32 31 2.64 31 4 C28.09399739 5.25664978 26.20395416 6 23 6 C23.33 24.81 23.66 43.62 24 63 C27.465 64.485 27.465 64.485 31 66 C31 67.32 31 68.64 31 70 C20.44 70 9.88 70 -1 70 C-0.67 68.35 -0.34 66.7 0 65 C2.88909849 63.40339294 4.69058796 63 8 63 C8 44.19 8 25.38 8 6 C5.69 5.67 3.38 5.34 1 5 C0.67 3.35 0.34 1.7 0 0 Z " fill="#0C4F41" transform="translate(193,355)"/>
<path d="M0 0 C12.25039333 -0.49496539 12.25039333 -0.49496539 15.86328125 1.890625 C18.91966723 4.90789818 19.17466542 6.62515279 19.25 10.8125 C19.20135956 15.02597806 18.86735676 17.72302085 16 21 C11.12489006 24.16882146 5.59822258 23.12170049 0 23 C0 15.41 0 7.82 0 0 Z " fill="#105244" transform="translate(194,445)"/>
<path d="M0 0 C12.19072522 -0.49255455 12.19072522 -0.49255455 15.89453125 1.76171875 C18 4 18 4 18.59375 6.03515625 C18.34121123 11.49630724 18.34121123 11.49630724 16.6875 13.9375 C13.727268 15.80134978 11.21576838 16.11829128 7.8125 16.0625 C5.9253125 16.0315625 5.9253125 16.0315625 4 16 C4 18.31 4 20.62 4 23 C2.68 23 1.36 23 0 23 C0 15.41 0 7.82 0 0 Z " fill="#155548" transform="translate(296,445)"/>
<path d="M0 0 C6 0 6 0 7.59912109 1.37695312 C8.18040771 2.31958008 8.18040771 2.31958008 8.7734375 3.28125 C9.20527344 3.95800781 9.63710938 4.63476562 10.08203125 5.33203125 C10.72205078 6.40517578 10.72205078 6.40517578 11.375 7.5 C11.82488281 8.21542969 12.27476562 8.93085938 12.73828125 9.66796875 C13.84465791 11.43346341 14.92491676 13.21527684 16 15 C16.33 10.05 16.66 5.1 17 0 C18.32 0 19.64 0 21 0 C21 7.59 21 15.18 21 23 C16 23 16 23 14.42260742 21.43945312 C13.98795166 20.72724609 13.5532959 20.01503906 13.10546875 19.28125 C12.62529297 18.51425781 12.14511719 17.74726563 11.65039062 16.95703125 C11.16763672 16.14621094 10.68488281 15.33539063 10.1875 14.5 C9.68541016 13.68917969 9.18332031 12.87835938 8.66601562 12.04296875 C7.42794798 10.03847828 6.21184616 8.02045104 5 6 C4.67 11.61 4.34 17.22 4 23 C2.68 23 1.36 23 0 23 C0 15.41 0 7.82 0 0 Z " fill="#1B594D" transform="translate(332,445)"/>
<path d="M0 0 C2.31 0 4.62 0 7 0 C8.17430074 3.2681432 9.33811256 6.53992515 10.5 9.8125 C10.83386719 10.74126953 11.16773438 11.67003906 11.51171875 12.62695312 C11.82753906 13.51962891 12.14335937 14.41230469 12.46875 15.33203125 C12.76201172 16.15421143 13.05527344 16.9763916 13.35742188 17.82348633 C14 20 14 20 14 23 C12.68 23 11.36 23 10 23 C9.505 20.525 9.505 20.525 9 18 C5.37 18 1.74 18 -2 18 C-2.33 19.65 -2.66 21.3 -3 23 C-4.32 23 -5.64 23 -7 23 C-5.48526781 15.01323028 -2.83197448 7.59877122 0 0 Z " fill="#155648" transform="translate(145,445)"/>
<path d="M0 0 C2.31 0 4.62 0 7 0 C8.17430074 3.2681432 9.33811256 6.53992515 10.5 9.8125 C10.83386719 10.74126953 11.16773438 11.67003906 11.51171875 12.62695312 C11.82753906 13.51962891 12.14335937 14.41230469 12.46875 15.33203125 C12.76201172 16.15421143 13.05527344 16.9763916 13.35742188 17.82348633 C14 20 14 20 14 23 C12.68 23 11.36 23 10 23 C9.505 20.525 9.505 20.525 9 18 C5.37 18 1.74 18 -2 18 C-2.33 19.65 -2.66 21.3 -3 23 C-4.32 23 -5.64 23 -7 23 C-5.48526781 15.01323028 -2.83197448 7.59877122 0 0 Z " fill="#155548" transform="translate(276,445)"/>
<path d="M0 0 C6 0 6 0 7.59912109 1.46875 C8.18040771 2.47421875 8.18040771 2.47421875 8.7734375 3.5 C9.20527344 4.221875 9.63710937 4.94375 10.08203125 5.6875 C10.50871094 6.450625 10.93539062 7.21375 11.375 8 C11.82488281 8.763125 12.27476562 9.52625 12.73828125 10.3125 C13.8453284 12.19683557 14.92532412 14.09701663 16 16 C16.33 10.72 16.66 5.44 17 0 C18.32 0 19.64 0 21 0 C21 7.59 21 15.18 21 23 C16 23 16 23 14.53027344 21.65478516 C14.14387695 21.03909668 13.75748047 20.4234082 13.359375 19.7890625 C12.92882812 19.12132812 12.49828125 18.45359375 12.0546875 17.765625 C11.62414062 17.05921875 11.19359375 16.3528125 10.75 15.625 C10.30398437 14.92632812 9.85796875 14.22765625 9.3984375 13.5078125 C7.8349289 11.04410199 6.30540941 8.61081881 5 6 C4.67 11.61 4.34 17.22 4 23 C2.68 23 1.36 23 0 23 C0 15.41 0 7.82 0 0 Z " fill="#165649" transform="translate(165,445)"/>
<path d="M0 0 C0.66 0 1.32 0 2 0 C2.17015625 0.73863281 2.3403125 1.47726562 2.515625 2.23828125 C4.02658405 8.56341302 5.82858287 14.57980408 8.23046875 20.625 C9 23 9 23 9 27 C3.39 27 -2.22 27 -8 27 C-7.608125 25.700625 -7.21625 24.40125 -6.8125 23.0625 C-4.50812128 15.38493053 -2.25747042 7.69146047 0 0 Z " fill="#EEF2F1" transform="translate(339,369)"/>
<path d="M0 0 C2.9375 1.75 2.9375 1.75 5 4 C5 5.32 5 6.64 5 8 C2.13275314 7.42655063 1.1385485 7.1385485 -1 5 C-4.5 4.58333333 -4.5 4.58333333 -8 5 C-10.46934085 8.70401128 -10.44928433 11.70587865 -10 16 C-9.13734032 18.40557853 -9.13734032 18.40557853 -8 20 C-4.62599422 20.41725678 -4.62599422 20.41725678 -1 20 C1.00864359 17.6273026 1.00864359 17.6273026 2 15 C0.35 15 -1.3 15 -3 15 C-3 14.01 -3 13.02 -3 12 C-0.03 12 2.94 12 6 12 C6 15.96 6 19.92 6 24 C5.01 24 4.02 24 3 24 C2.67 23.01 2.34 22.02 2 21 C1.59652344 21.4846875 1.19304687 21.969375 0.77734375 22.46875 C-1.96797476 24.83394749 -4.33975756 24.53212905 -7.83984375 24.4296875 C-10 24 -10 24 -12.5 21.625 C-15.1938412 16.9107779 -15.66440156 13.41532781 -15 8 C-13.37854397 4.81499709 -12.02671736 2.77888904 -9.1875 0.625 C-5.94376185 -0.30178233 -3.35738508 -0.35340896 0 0 Z " fill="#1A594C" transform="translate(375,444)"/>
<path d="M0 0 C1.79296875 1.421875 1.79296875 1.421875 3 3 C2.6875 5.1875 2.6875 5.1875 2 7 C1.34 7 0.68 7 0 7 C-0.66 6.01 -1.32 5.02 -2 4 C-3.97747122 3.63702064 -3.97747122 3.63702064 -6.125 3.8125 C-7.40375 3.874375 -8.6825 3.93625 -10 4 C-9.96771711 5.96199491 -9.96771711 5.96199491 -9 8 C-6.26055447 9.29587225 -6.26055447 9.29587225 -3 10.125 C-0.98506096 10.70001798 1.01975652 11.31497391 3 12 C4.41441874 14.82883747 4.31900332 16.87376745 4 20 C1.00214365 22.97689232 -1.34758632 23.43179614 -5.5 23.4375 C-9.15901902 23.33979589 -10.60592868 23.26576903 -13.6875 21.1875 C-15 19 -15 19 -15 16 C-13.68 16 -12.36 16 -11 16 C-10.34 16.99 -9.68 17.98 -9 19 C-7.02252878 19.36297936 -7.02252878 19.36297936 -4.875 19.1875 C-3.59625 19.125625 -2.3175 19.06375 -1 19 C-1 17.68 -1 16.36 -1 15 C-1.68707031 14.81824219 -2.37414062 14.63648438 -3.08203125 14.44921875 C-3.98308594 14.19785156 -4.88414062 13.94648438 -5.8125 13.6875 C-6.70582031 13.44386719 -7.59914062 13.20023437 -8.51953125 12.94921875 C-11.09671714 11.96298856 -12.3352904 11.17651353 -14 9 C-14.5 6.0625 -14.5 6.0625 -14 3 C-10.15815903 -1.8332838 -5.56093149 -1.73909281 0 0 Z " fill="#155548" transform="translate(234,445)"/>
<path d="M0 0 C2.875 1.75 2.875 1.75 5 4 C5 5.32 5 6.64 5 8 C4.01 8 3.02 8 2 8 C1.34 7.01 0.68 6.02 0 5 C-1.97747122 4.63702064 -1.97747122 4.63702064 -4.125 4.8125 C-5.40375 4.874375 -6.6825 4.93625 -8 5 C-9.53275382 9.59826145 -9.79869564 14.00326091 -8 18.5 C-4.79687946 20.9023404 -1.92653359 20.25747761 2 20 C2.33 18.35 2.66 16.7 3 15 C3.99 15 4.98 15 6 15 C5.6875 18.375 5.6875 18.375 5 22 C0.77005384 24.8199641 -3.03220448 24.79231188 -8 24 C-11.34625024 21.47323961 -12.67977847 19.96066458 -14 16 C-14.39308695 11.20433923 -14.48270142 8.93092416 -12.25 4.625 C-8.55207875 0.31075854 -5.70124711 -0.69811189 0 0 Z " fill="#18584B" transform="translate(258,444)"/>
<path d="M0 0 C1.13308594 -0.01933594 2.26617187 -0.03867188 3.43359375 -0.05859375 C7.14718179 0.53020236 8.35064103 1.44466366 10.5625 4.4375 C10.4375 7.125 10.4375 7.125 9.5625 9.4375 C6.52826019 10.9546199 3.38745206 10.62189257 0.0625 10.625 C-0.62714844 10.63724609 -1.31679687 10.64949219 -2.02734375 10.66210938 C-3.83227494 10.66738695 -5.63667842 10.55934458 -7.4375 10.4375 C-9.4375 8.4375 -9.4375 8.4375 -9.75 6 C-9.4375 3.4375 -9.4375 3.4375 -8.3203125 1.8046875 C-5.5672397 -0.19443175 -3.36556233 0.00382016 0 0 Z " fill="#CEA13B" transform="translate(151.4375,199.5625)"/>
<path d="M0 0 C7 0 7 0 9.4375 1.4375 C11.75587974 5.23964277 11.77201236 8.66240478 11 13 C9.4375 15.5625 9.4375 15.5625 7 17 C4.69 17 2.38 17 0 17 C0 11.39 0 5.78 0 0 Z " fill="#F7F9F9" transform="translate(198,448)"/>
<path d="M0 0 C1.46751239 0.00399142 2.93502584 0.01874717 4.40234375 0.04296875 C5.14806641 0.04361328 5.89378906 0.04425781 6.66210938 0.04492188 C12.19956216 0.09018716 12.19956216 0.09018716 13.33984375 1.23046875 C13.38077312 3.56344308 13.38226098 5.897521 13.33984375 8.23046875 C10.30560394 9.74758865 7.16479581 9.41486132 3.83984375 9.41796875 C3.15019531 9.43021484 2.46054687 9.44246094 1.75 9.45507812 C-0.05493119 9.4603557 -1.85933467 9.35231333 -3.66015625 9.23046875 C-5.66015625 7.23046875 -5.66015625 7.23046875 -5.91015625 4.73046875 C-5.48519406 0.4808469 -4.12376364 0.25966068 0 0 Z " fill="#CC9C33" transform="translate(343.66015625,200.76953125)"/>
<path d="M0 0 C0.94875 0.04125 1.8975 0.0825 2.875 0.125 C4.3921199 3.15923981 4.05939257 6.30004794 4.0625 9.625 C4.07474609 10.31464844 4.08699219 11.00429687 4.09960938 11.71484375 C4.10488695 13.51977494 3.99684458 15.32417842 3.875 17.125 C1.875 19.125 1.875 19.125 -0.625 19.375 C-3.125 19.125 -3.125 19.125 -5.125 17.125 C-5.32349071 14.57964859 -5.40351775 12.16783241 -5.375 9.625 C-5.38273438 8.93535156 -5.39046875 8.24570313 -5.3984375 7.53515625 C-5.36989808 0.21479592 -5.36989808 0.21479592 0 0 Z " fill="#CC9C32" transform="translate(250.125,97.875)"/>
<path d="M0 0 C1.32 0 2.64 0 4 0 C4 6.6 4 13.2 4 20 C7.63 20 11.26 20 15 20 C15 20.99 15 21.98 15 23 C10.05 23 5.1 23 0 23 C0 15.41 0 7.82 0 0 Z " fill="#19584B" transform="translate(118,445)"/>
<path d="M0 0 C4.20457093 0.07786242 6.30943887 0.36255896 9.4375 3.25 C11.12115876 6.21323941 11.54164815 7.6598364 11 11 C9 13 9 13 6.75 13.5 C2.627073 12.75037691 0.37495641 10.37577416 -2 7 C-2.5 4.25 -2.5 4.25 -2 2 C-1.34 1.34 -0.68 0.68 0 0 Z " fill="#CD9E35" transform="translate(174,128)"/>
<path d="M0 0 C2.25 0.5 2.25 0.5 4.25 2.5 C4.75 4.75 4.75 4.75 4.25 7.5 C1.87504359 10.87577416 -0.377073 13.25037691 -4.5 14 C-6.75 13.5 -6.75 13.5 -8.75 11.5 C-9.25 9.25 -9.25 9.25 -8.75 6.5 C-6.37504359 3.12422584 -4.122927 0.74962309 0 0 Z " fill="#CC9C32" transform="translate(322.75,127.5)"/>
<path d="M0 0 C6.0546875 -0.1953125 6.0546875 -0.1953125 8 0 C10 2 10 2 10.3125 5 C10.1578125 6.485 10.1578125 6.485 10 8 C6.3558226 10.4294516 4.28758728 10.16179575 0 10 C0 6.7 0 3.4 0 0 Z " fill="#F7F9F9" transform="translate(300,448)"/>
<path d="M0 0 C1.32 0 2.64 0 4 0 C4 7.59 4 15.18 4 23 C2.68 23 1.36 23 0 23 C0 15.41 0 7.82 0 0 Z " fill="#1E5C4F" transform="translate(321,445)"/>
<path d="M0 0 C2.97 0 5.94 0 9 0 C9 3.96 9 7.92 9 12 C8.01 12 7.02 12 6 12 C6.33 10.02 6.66 8.04 7 6 C6.34 6 5.68 6 5 6 C5 5.01 5 4.02 5 3 C3.35 3 1.7 3 0 3 C0 2.01 0 1.02 0 0 Z " fill="#256054" transform="translate(372,456)"/>
<path d="M0 0 C3.45854519 3.45854519 4 7.21904213 4 12 C1.69 12 -0.62 12 -3 12 C-2.49202991 7.6822542 -1.80317221 3.96697886 0 0 Z " fill="#ECF1F0" transform="translate(279,448)"/>
<path d="M0 0 C3.45854519 3.45854519 4 7.21904213 4 12 C1.69 12 -0.62 12 -3 12 C-2.49202991 7.6822542 -1.80317221 3.96697886 0 0 Z " fill="#ECF1F0" transform="translate(148,448)"/>
<path d="M0 0 C4.62 0 9.24 0 14 0 C14 0.33 14 0.66 14 1 C9.05 1.66 4.1 2.32 -1 3 C-0.67 2.01 -0.34 1.02 0 0 Z " fill="#E7EEEC" transform="translate(301,241)"/>
</svg>
