<?xml version="1.0" encoding="UTF-8"?>
<svg id="Layer_1" data-name="Layer 1" xmlns="http://www.w3.org/2000/svg" viewBox="0 0 550.98 404.57">
  <defs>
    <style>
      .cls-1 {
        fill: #04493b;
      }
    </style>
  </defs>
  <g>
    <path class="cls-1" d="M139.04,209.7l45.65-58.61h-33.99l-1.99,2.19v12.46h-7.18v-20.23h55.91v5.58l-45.65,58.61h37.08l1.99-2.19v-12.46h7.18v20.23h-59v-5.58Z"/>
    <path class="cls-1" d="M246.49,215.28h-29.3v-5.58h9.07v-58.61h-9.07v-5.58h29.3v5.58h-9.07v58.61h9.07v5.58Z"/>
    <path class="cls-1" d="M322.83,151.09h-9.07v-5.58h24.82v5.58h-8.27l-23.12,64.19h-11.06l-25.91-64.19h-8.67v-5.58h30.7v5.58h-9.57l17.94,46.55,2.89,9.47h.4l2.99-9.67,15.95-46.35Z"/>
    <path class="cls-1" d="M361.11,215.28h-24.42v-5.58h7.77l25.81-64.19h10.56l23.62,64.19h7.48v5.58h-28.51v-5.58h8.87l-6.48-17.54h-26.51l-6.78,17.54h8.57v5.58ZM361.6,186.58h22.53l-8.17-23.02-2.49-10.56h-.4l-2.89,10.76-8.57,22.82Z"/>
  </g>
  <g>
    <path class="cls-1" d="M137.83,258.69v-19.1h3.15v19.1h-3.15ZM138.67,258.69v-2.72h10.94v2.72h-10.94Z"/>
    <path class="cls-1" d="M153.4,258.69l6.66-19.1h4.6l6.66,19.1h-3.41l-5.35-16.52h-.38l-5.35,16.52h-3.42ZM156.72,254.58v-2.31h11.66v2.31h-11.66Z"/>
    <path class="cls-1" d="M176.17,258.69v-19.1h4.17l9.58,14.9h.26l-.2-14.9h3.07v19.1h-3.79l-9.95-15.37h-.26l.2,15.37h-3.07Z"/>
    <path class="cls-1" d="M199.49,258.69v-19.1h3.15v19.1h-3.15ZM201.08,258.69v-2.66h5.61c1.23,0,2.26-.28,3.07-.84.81-.56,1.41-1.35,1.81-2.37.39-1.02.59-2.23.59-3.62,0-1.2-.13-2.23-.38-3.11-.25-.88-.63-1.6-1.14-2.16-.51-.56-1.16-.98-1.94-1.26-.78-.28-1.69-.42-2.73-.42h-4.89v-2.66h4.8c2.2,0,4,.38,5.41,1.13s2.45,1.83,3.12,3.23c.68,1.4,1.01,3.08,1.01,5.05,0,1.35-.15,2.55-.46,3.6-.31,1.05-.73,1.96-1.26,2.72-.53.76-1.16,1.39-1.88,1.89-.72.5-1.51.87-2.37,1.11s-1.75.36-2.68.36h-5.7Z"/>
    <path class="cls-1" d="M228.11,259.06c-1.25,0-2.37-.13-3.34-.39-.97-.26-1.79-.65-2.46-1.16-.67-.51-1.17-1.15-1.5-1.91-.34-.76-.5-1.64-.48-2.65l2.81-.75c-.04.96.14,1.77.55,2.4.4.64,1.01,1.11,1.81,1.43.8.32,1.72.48,2.76.48s1.88-.12,2.57-.38c.7-.25,1.22-.59,1.58-1.03.36-.43.54-.93.54-1.49,0-.64-.22-1.14-.65-1.52-.43-.38-1.01-.67-1.72-.9-.71-.22-1.51-.43-2.4-.62-.91-.19-1.8-.42-2.69-.67-.89-.25-1.69-.58-2.42-1-.72-.42-1.3-.95-1.74-1.61-.43-.65-.65-1.48-.65-2.49,0-1.16.29-2.15.87-2.98.58-.83,1.4-1.47,2.47-1.94,1.07-.46,2.34-.7,3.81-.7s2.75.23,3.86.68c1.11.45,1.99,1.11,2.63,1.97.65.86.98,1.89,1,3.11l-2.89.75c0-.66-.11-1.23-.33-1.74-.22-.5-.54-.92-.94-1.24-.4-.33-.89-.57-1.45-.74s-1.2-.25-1.91-.25c-.83,0-1.55.12-2.17.36-.62.24-1.09.57-1.43.98-.34.41-.51.9-.51,1.46,0,.69.25,1.24.74,1.63.49.4,1.14.71,1.95.96.81.24,1.68.47,2.6.68.83.17,1.65.38,2.47.62.82.24,1.57.56,2.26.97.68.4,1.23.94,1.65,1.59.41.66.62,1.49.62,2.52,0,1.12-.29,2.09-.88,2.92-.59.83-1.46,1.47-2.62,1.92-1.16.45-2.62.68-4.37.68Z"/>
    <path class="cls-1" d="M249.75,259.06c-1.41,0-2.67-.21-3.79-.64-1.12-.42-2.06-1.05-2.83-1.87-.77-.82-1.36-1.83-1.77-3.04-.41-1.21-.61-2.59-.61-4.15s.21-3,.62-4.25c.42-1.25,1.01-2.32,1.78-3.2.77-.88,1.7-1.55,2.78-2.01,1.08-.46,2.29-.7,3.62-.7,1.02,0,1.97.14,2.84.42s1.62.68,2.26,1.2c.64.52,1.13,1.16,1.49,1.91s.54,1.6.56,2.55l-2.98.75c.02-.93-.17-1.69-.56-2.3-.4-.61-.92-1.07-1.58-1.38-.66-.31-1.36-.46-2.11-.46-.69,0-1.37.13-2.03.4-.66.27-1.24.7-1.75,1.29-.51.59-.92,1.35-1.22,2.27-.3.93-.45,2.04-.45,3.36,0,1.68.25,3.04.74,4.09.49,1.05,1.18,1.82,2.05,2.32.88.49,1.89.74,3.02.74s2.04-.22,2.72-.67c.67-.44,1.17-1.04,1.49-1.78.32-.74.5-1.59.54-2.53l2.81.49c-.02.98-.17,1.92-.46,2.79s-.74,1.64-1.35,2.3c-.61.66-1.39,1.17-2.36,1.53-.96.37-2.12.55-3.47.55Z"/>
    <path class="cls-1" d="M260.69,258.69l6.65-19.1h4.6l6.65,19.1h-3.41l-5.35-16.52h-.38l-5.35,16.52h-3.41ZM264.02,254.58v-2.31h11.66v2.31h-11.66Z"/>
    <path class="cls-1" d="M283.46,258.69v-19.1h3.15v19.1h-3.15ZM285.37,252.98v-2.58h4.6c1.68,0,2.94-.33,3.78-.98.84-.66,1.26-1.74,1.26-3.24,0-1.35-.39-2.36-1.17-3.04-.78-.68-1.98-1.01-3.6-1.01h-4.86v-2.55h4.92c1.25,0,2.37.14,3.34.43.97.29,1.8.71,2.49,1.27.68.56,1.21,1.26,1.56,2.1.36.84.54,1.81.54,2.91,0,1.45-.33,2.67-.98,3.66s-1.62,1.75-2.91,2.26-2.87.77-4.76.77h-4.2Z"/>
    <path class="cls-1" d="M303.37,258.69v-19.1h3.21v19.1h-3.21Z"/>
    <path class="cls-1" d="M313.03,258.69v-19.1h4.17l9.58,14.9h.26l-.2-14.9h3.07v19.1h-3.79l-9.95-15.37h-.26l.2,15.37h-3.07Z"/>
    <path class="cls-1" d="M343.79,259.06c-1.56,0-2.96-.36-4.18-1.08-1.23-.72-2.19-1.81-2.89-3.26-.7-1.45-1.06-3.26-1.06-5.44,0-1.58.19-2.99.58-4.22.38-1.23.96-2.29,1.74-3.15.77-.87,1.71-1.53,2.82-2,1.11-.46,2.4-.7,3.86-.7,1.1,0,2.09.13,2.98.41s1.66.66,2.31,1.16c.66.5,1.18,1.11,1.58,1.82.39.71.62,1.53.68,2.46l-3.01.9c-.06-.96-.31-1.75-.75-2.34-.44-.6-1.01-1.03-1.69-1.3-.68-.27-1.41-.4-2.18-.4-1.14,0-2.13.25-2.97.75-.84.5-1.49,1.29-1.95,2.36-.46,1.07-.69,2.46-.69,4.15,0,1.31.14,2.43.42,3.34s.67,1.66,1.16,2.23,1.08.98,1.77,1.24c.68.26,1.42.39,2.21.39.96,0,1.79-.17,2.49-.52.7-.35,1.25-.88,1.68-1.59.42-.71.68-1.62.78-2.72h-4.11v-2.4h7.23v9.55h-2.4l.38-5.09h-.46c-.27,1.22-.67,2.23-1.2,3.04s-1.21,1.42-2.04,1.82c-.83.41-1.85.61-3.07.61Z"/>
    <path class="cls-1" d="M375.68,259.06c-1.41,0-2.67-.21-3.79-.64-1.12-.42-2.06-1.05-2.84-1.87s-1.36-1.83-1.76-3.04c-.41-1.21-.61-2.59-.61-4.15s.21-3,.62-4.25c.41-1.25,1.01-2.32,1.78-3.2.77-.88,1.7-1.55,2.78-2.01,1.08-.46,2.29-.7,3.62-.7,1.02,0,1.97.14,2.84.42s1.62.68,2.26,1.2c.64.52,1.13,1.16,1.49,1.91s.54,1.6.56,2.55l-2.98.75c.02-.93-.17-1.69-.56-2.3-.4-.61-.92-1.07-1.58-1.38s-1.36-.46-2.11-.46c-.7,0-1.37.13-2.03.4-.66.27-1.24.7-1.75,1.29-.51.59-.92,1.35-1.21,2.27-.3.93-.45,2.04-.45,3.36,0,1.68.25,3.04.74,4.09s1.18,1.82,2.05,2.32c.88.49,1.89.74,3.02.74s2.04-.22,2.72-.67c.67-.44,1.17-1.04,1.49-1.78.32-.74.5-1.59.54-2.53l2.81.49c-.02.98-.17,1.92-.46,2.79s-.74,1.64-1.35,2.3c-.61.66-1.39,1.17-2.36,1.53-.96.37-2.12.55-3.47.55Z"/>
    <path class="cls-1" d="M396.46,259.06c-1.39,0-2.62-.23-3.69-.68-1.07-.45-1.98-1.1-2.72-1.95-.74-.85-1.3-1.88-1.68-3.1s-.56-2.58-.56-4.11c0-2.24.38-4.09,1.13-5.57.75-1.47,1.79-2.58,3.1-3.33s2.81-1.11,4.49-1.11c1.31,0,2.5.22,3.56.65s1.97,1.08,2.73,1.94c.76.86,1.35,1.91,1.75,3.15s.61,2.66.61,4.24-.19,2.93-.58,4.15c-.39,1.23-.96,2.26-1.71,3.11-.75.85-1.66,1.5-2.73,1.94-1.07.44-2.3.67-3.69.67ZM396.52,256.43c1.16,0,2.14-.28,2.95-.84s1.43-1.36,1.85-2.42c.42-1.05.64-2.34.64-3.86s-.22-2.89-.65-3.99c-.43-1.1-1.06-1.94-1.88-2.53-.82-.59-1.81-.88-2.97-.88s-2.09.29-2.91.85c-.82.57-1.45,1.39-1.88,2.47-.43,1.08-.65,2.41-.65,3.99,0,1.16.12,2.19.38,3.08.25.9.61,1.65,1.07,2.26.46.61,1.04,1.07,1.72,1.39.69.32,1.46.48,2.33.48Z"/>
    <path class="cls-1" d="M410.95,259.03c-.71,0-1.25-.16-1.61-.46-.36-.31-.54-.79-.54-1.45s.18-1.17.55-1.48.9-.46,1.59-.46c.73,0,1.28.15,1.65.46.37.31.55.8.55,1.48,0,1.27-.73,1.91-2.2,1.91Z"/>
  </g>
</svg>